<?xml version="1.0" standalone="no"?>
<!DOCTYPE svg PUBLIC "-//W3C//DTD SVG 20010904//EN"
 "http://www.w3.org/TR/2001/REC-SVG-20010904/DTD/svg10.dtd">
<svg version="1.0" xmlns="http://www.w3.org/2000/svg"
 width="500.000000pt" height="500.000000pt" viewBox="0 0 500.000000 500.000000"
 preserveAspectRatio="xMidYMid meet">

<g transform="translate(0.000000,500.000000) scale(0.100000,-0.100000)"
fill="#000000" stroke="none">
<path d="M0 2500 l0 -2500 2500 0 2500 0 0 2500 0 2500 -2500 0 -2500 0 0
-2500z m4670 1715 l0 -25 -2170 0 -2170 0 0 25 0 25 2170 0 2170 0 0 -25z
m-3684 -812 c87 -170 215 -420 285 -557 l127 -248 175 343 c97 189 224 439
284 554 l108 210 273 3 272 2 0 -1035 0 -1035 -200 0 -200 0 -2 756 -3 756
-354 -676 c-195 -372 -357 -676 -360 -676 -3 0 -163 304 -356 674 l-350 674
-3 -754 -2 -754 -198 2 -197 3 -3 1020 c-1 561 0 1026 3 1033 3 9 68 12 274
12 l270 0 157 -307z m3071 295 c10 -14 833 -2039 833 -2051 0 -4 -103 -7 -229
-7 l-228 0 -104 270 -104 270 -429 -2 -428 -3 -48 -120 c-26 -66 -73 -186
-105 -267 l-58 -148 -219 0 c-205 0 -220 1 -216 18 9 31 831 2027 841 2040 7
9 69 12 247 12 178 0 240 -3 247 -12z m613 -2703 l0 -25 -2170 0 -2170 0 0 25
0 25 2170 0 2170 0 0 -25z"/>
<path d="M3798 3274 c-9 -13 -288 -730 -288 -738 0 -3 131 -6 291 -6 273 0
291 1 284 18 -8 21 -265 689 -275 716 -3 11 -9 15 -12 10z"/>
</g>
</svg>
